<mxfile host="Electron" agent="Mozilla/5.0 (Windows NT 10.0; Win64; x64) AppleWebKit/537.36 (KHTML, like Gecko) draw.io/24.7.5 Chrome/126.0.6478.183 Electron/31.3.0 Safari/537.36" version="24.7.5">
  <diagram id="qUodBa6tW9H6ej7ETo6i" name="Page-2">
    <mxGraphModel dx="880" dy="542" grid="1" gridSize="10" guides="1" tooltips="1" connect="1" arrows="1" fold="1" page="1" pageScale="1" pageWidth="850" pageHeight="1100" math="0" shadow="0">
      <root>
        <mxCell id="0" />
        <mxCell id="1" parent="0" />
        <mxCell id="a28yKtqxHukzNuhF35Zg-3" value="" style="group" vertex="1" connectable="0" parent="1">
          <mxGeometry x="160" y="160" width="120" height="240" as="geometry" />
        </mxCell>
        <mxCell id="a28yKtqxHukzNuhF35Zg-1" value="" style="rounded=0;whiteSpace=wrap;html=1;" vertex="1" parent="a28yKtqxHukzNuhF35Zg-3">
          <mxGeometry width="120" height="240" as="geometry" />
        </mxCell>
        <mxCell id="a28yKtqxHukzNuhF35Zg-2" value="Packet Generator" style="text;html=1;align=center;verticalAlign=middle;whiteSpace=wrap;rounded=0;" vertex="1" parent="a28yKtqxHukzNuhF35Zg-3">
          <mxGeometry x="30" y="105" width="60" height="30" as="geometry" />
        </mxCell>
        <mxCell id="a28yKtqxHukzNuhF35Zg-7" value="" style="group" vertex="1" connectable="0" parent="1">
          <mxGeometry x="80" y="158" width="80" height="32" as="geometry" />
        </mxCell>
        <mxCell id="a28yKtqxHukzNuhF35Zg-4" value="" style="endArrow=classic;html=1;rounded=0;" edge="1" parent="a28yKtqxHukzNuhF35Zg-7">
          <mxGeometry width="50" height="50" relative="1" as="geometry">
            <mxPoint y="32" as="sourcePoint" />
            <mxPoint x="80" y="32" as="targetPoint" />
          </mxGeometry>
        </mxCell>
        <mxCell id="a28yKtqxHukzNuhF35Zg-5" value="clk" style="text;html=1;align=center;verticalAlign=middle;resizable=0;points=[];autosize=1;strokeColor=none;fillColor=none;" vertex="1" parent="a28yKtqxHukzNuhF35Zg-7">
          <mxGeometry x="10" width="40" height="30" as="geometry" />
        </mxCell>
        <mxCell id="a28yKtqxHukzNuhF35Zg-8" value="" style="group" vertex="1" connectable="0" parent="1">
          <mxGeometry x="80" y="200" width="80" height="32" as="geometry" />
        </mxCell>
        <mxCell id="a28yKtqxHukzNuhF35Zg-9" value="" style="endArrow=classic;html=1;rounded=0;" edge="1" parent="a28yKtqxHukzNuhF35Zg-8">
          <mxGeometry width="50" height="50" relative="1" as="geometry">
            <mxPoint y="32" as="sourcePoint" />
            <mxPoint x="80" y="32" as="targetPoint" />
          </mxGeometry>
        </mxCell>
        <mxCell id="a28yKtqxHukzNuhF35Zg-10" value="rst" style="text;html=1;align=center;verticalAlign=middle;resizable=0;points=[];autosize=1;strokeColor=none;fillColor=none;" vertex="1" parent="a28yKtqxHukzNuhF35Zg-8">
          <mxGeometry x="10" width="40" height="30" as="geometry" />
        </mxCell>
        <mxCell id="a28yKtqxHukzNuhF35Zg-11" value="" style="group" vertex="1" connectable="0" parent="1">
          <mxGeometry x="80" y="240" width="80" height="32" as="geometry" />
        </mxCell>
        <mxCell id="a28yKtqxHukzNuhF35Zg-12" value="" style="endArrow=classic;html=1;rounded=0;" edge="1" parent="a28yKtqxHukzNuhF35Zg-11">
          <mxGeometry width="50" height="50" relative="1" as="geometry">
            <mxPoint y="32" as="sourcePoint" />
            <mxPoint x="80" y="32" as="targetPoint" />
          </mxGeometry>
        </mxCell>
        <mxCell id="a28yKtqxHukzNuhF35Zg-13" value="dst_ready" style="text;html=1;align=center;verticalAlign=middle;resizable=0;points=[];autosize=1;strokeColor=none;fillColor=none;" vertex="1" parent="a28yKtqxHukzNuhF35Zg-11">
          <mxGeometry x="-10" width="80" height="30" as="geometry" />
        </mxCell>
        <mxCell id="a28yKtqxHukzNuhF35Zg-20" value="" style="group" vertex="1" connectable="0" parent="1">
          <mxGeometry x="280" y="170" width="80" height="32" as="geometry" />
        </mxCell>
        <mxCell id="a28yKtqxHukzNuhF35Zg-21" value="" style="endArrow=classic;html=1;rounded=0;" edge="1" parent="a28yKtqxHukzNuhF35Zg-20">
          <mxGeometry width="50" height="50" relative="1" as="geometry">
            <mxPoint y="32" as="sourcePoint" />
            <mxPoint x="80" y="32" as="targetPoint" />
          </mxGeometry>
        </mxCell>
        <mxCell id="a28yKtqxHukzNuhF35Zg-22" value="eof" style="text;html=1;align=center;verticalAlign=middle;resizable=0;points=[];autosize=1;strokeColor=none;fillColor=none;" vertex="1" parent="a28yKtqxHukzNuhF35Zg-20">
          <mxGeometry x="10" width="40" height="30" as="geometry" />
        </mxCell>
        <mxCell id="a28yKtqxHukzNuhF35Zg-23" value="" style="group" vertex="1" connectable="0" parent="1">
          <mxGeometry x="280" y="208" width="80" height="32" as="geometry" />
        </mxCell>
        <mxCell id="a28yKtqxHukzNuhF35Zg-24" value="" style="endArrow=classic;html=1;rounded=0;" edge="1" parent="a28yKtqxHukzNuhF35Zg-23">
          <mxGeometry width="50" height="50" relative="1" as="geometry">
            <mxPoint y="32" as="sourcePoint" />
            <mxPoint x="80" y="32" as="targetPoint" />
          </mxGeometry>
        </mxCell>
        <mxCell id="a28yKtqxHukzNuhF35Zg-25" value="dst_addr" style="text;html=1;align=center;verticalAlign=middle;resizable=0;points=[];autosize=1;strokeColor=none;fillColor=none;" vertex="1" parent="a28yKtqxHukzNuhF35Zg-23">
          <mxGeometry x="-5" width="70" height="30" as="geometry" />
        </mxCell>
        <mxCell id="a28yKtqxHukzNuhF35Zg-26" value="" style="group" vertex="1" connectable="0" parent="1">
          <mxGeometry x="280" y="250" width="80" height="32" as="geometry" />
        </mxCell>
        <mxCell id="a28yKtqxHukzNuhF35Zg-27" value="" style="endArrow=classic;html=1;rounded=0;" edge="1" parent="a28yKtqxHukzNuhF35Zg-26">
          <mxGeometry width="50" height="50" relative="1" as="geometry">
            <mxPoint y="32" as="sourcePoint" />
            <mxPoint x="80" y="32" as="targetPoint" />
          </mxGeometry>
        </mxCell>
        <mxCell id="a28yKtqxHukzNuhF35Zg-28" value="p_type" style="text;html=1;align=center;verticalAlign=middle;resizable=0;points=[];autosize=1;strokeColor=none;fillColor=none;" vertex="1" parent="a28yKtqxHukzNuhF35Zg-26">
          <mxGeometry width="60" height="30" as="geometry" />
        </mxCell>
        <mxCell id="a28yKtqxHukzNuhF35Zg-29" value="" style="group" vertex="1" connectable="0" parent="1">
          <mxGeometry x="280" y="290" width="80" height="32" as="geometry" />
        </mxCell>
        <mxCell id="a28yKtqxHukzNuhF35Zg-30" value="" style="endArrow=classic;html=1;rounded=0;" edge="1" parent="a28yKtqxHukzNuhF35Zg-29">
          <mxGeometry width="50" height="50" relative="1" as="geometry">
            <mxPoint y="32" as="sourcePoint" />
            <mxPoint x="80" y="32" as="targetPoint" />
          </mxGeometry>
        </mxCell>
        <mxCell id="a28yKtqxHukzNuhF35Zg-31" value="payload" style="text;html=1;align=center;verticalAlign=middle;resizable=0;points=[];autosize=1;strokeColor=none;fillColor=none;" vertex="1" parent="a28yKtqxHukzNuhF35Zg-29">
          <mxGeometry x="-5" width="70" height="30" as="geometry" />
        </mxCell>
        <mxCell id="a28yKtqxHukzNuhF35Zg-33" value="" style="group" vertex="1" connectable="0" parent="1">
          <mxGeometry x="280" y="330" width="80" height="62" as="geometry" />
        </mxCell>
        <mxCell id="a28yKtqxHukzNuhF35Zg-34" value="" style="endArrow=classic;html=1;rounded=0;" edge="1" parent="a28yKtqxHukzNuhF35Zg-33">
          <mxGeometry width="50" height="50" relative="1" as="geometry">
            <mxPoint y="32" as="sourcePoint" />
            <mxPoint x="80" y="32" as="targetPoint" />
          </mxGeometry>
        </mxCell>
        <mxCell id="a28yKtqxHukzNuhF35Zg-35" value="src_ready" style="text;html=1;align=center;verticalAlign=middle;resizable=0;points=[];autosize=1;strokeColor=none;fillColor=none;" vertex="1" parent="a28yKtqxHukzNuhF35Zg-33">
          <mxGeometry x="-10" width="80" height="30" as="geometry" />
        </mxCell>
        <mxCell id="a28yKtqxHukzNuhF35Zg-36" value="" style="group" vertex="1" connectable="0" parent="a28yKtqxHukzNuhF35Zg-33">
          <mxGeometry y="30" width="80" height="32" as="geometry" />
        </mxCell>
        <mxCell id="a28yKtqxHukzNuhF35Zg-37" value="" style="endArrow=classic;html=1;rounded=0;" edge="1" parent="a28yKtqxHukzNuhF35Zg-36">
          <mxGeometry width="50" height="50" relative="1" as="geometry">
            <mxPoint y="32" as="sourcePoint" />
            <mxPoint x="80" y="32" as="targetPoint" />
          </mxGeometry>
        </mxCell>
        <mxCell id="a28yKtqxHukzNuhF35Zg-38" value="src_valid" style="text;html=1;align=center;verticalAlign=middle;resizable=0;points=[];autosize=1;strokeColor=none;fillColor=none;" vertex="1" parent="a28yKtqxHukzNuhF35Zg-36">
          <mxGeometry x="-5" width="70" height="30" as="geometry" />
        </mxCell>
        <mxCell id="a28yKtqxHukzNuhF35Zg-42" value="" style="shape=table;startSize=0;container=1;collapsible=0;childLayout=tableLayout;" vertex="1" parent="1">
          <mxGeometry x="140" y="480" width="480" height="40" as="geometry" />
        </mxCell>
        <mxCell id="a28yKtqxHukzNuhF35Zg-43" value="" style="shape=tableRow;horizontal=0;startSize=0;swimlaneHead=0;swimlaneBody=0;strokeColor=inherit;top=0;left=0;bottom=0;right=0;collapsible=0;dropTarget=0;fillColor=none;points=[[0,0.5],[1,0.5]];portConstraint=eastwest;" vertex="1" parent="a28yKtqxHukzNuhF35Zg-42">
          <mxGeometry width="480" height="40" as="geometry" />
        </mxCell>
        <mxCell id="a28yKtqxHukzNuhF35Zg-44" value="dst_addr" style="shape=partialRectangle;html=1;whiteSpace=wrap;connectable=0;strokeColor=inherit;overflow=hidden;fillColor=none;top=0;left=0;bottom=0;right=0;pointerEvents=1;" vertex="1" parent="a28yKtqxHukzNuhF35Zg-43">
          <mxGeometry width="90" height="40" as="geometry">
            <mxRectangle width="90" height="40" as="alternateBounds" />
          </mxGeometry>
        </mxCell>
        <mxCell id="a28yKtqxHukzNuhF35Zg-45" value="packet_type" style="shape=partialRectangle;html=1;whiteSpace=wrap;connectable=0;strokeColor=inherit;overflow=hidden;fillColor=none;top=0;left=0;bottom=0;right=0;pointerEvents=1;" vertex="1" parent="a28yKtqxHukzNuhF35Zg-43">
          <mxGeometry x="90" width="90" height="40" as="geometry">
            <mxRectangle width="90" height="40" as="alternateBounds" />
          </mxGeometry>
        </mxCell>
        <mxCell id="a28yKtqxHukzNuhF35Zg-46" value="Payload" style="shape=partialRectangle;html=1;whiteSpace=wrap;connectable=0;strokeColor=inherit;overflow=hidden;fillColor=none;top=0;left=0;bottom=0;right=0;pointerEvents=1;" vertex="1" parent="a28yKtqxHukzNuhF35Zg-43">
          <mxGeometry x="180" width="240" height="40" as="geometry">
            <mxRectangle width="240" height="40" as="alternateBounds" />
          </mxGeometry>
        </mxCell>
        <mxCell id="a28yKtqxHukzNuhF35Zg-47" value="eof" style="shape=partialRectangle;html=1;whiteSpace=wrap;connectable=0;strokeColor=inherit;overflow=hidden;fillColor=none;top=0;left=0;bottom=0;right=0;pointerEvents=1;" vertex="1" parent="a28yKtqxHukzNuhF35Zg-43">
          <mxGeometry x="420" width="60" height="40" as="geometry">
            <mxRectangle width="60" height="40" as="alternateBounds" />
          </mxGeometry>
        </mxCell>
        <mxCell id="a28yKtqxHukzNuhF35Zg-49" value="0" style="text;html=1;align=center;verticalAlign=middle;resizable=0;points=[];autosize=1;strokeColor=none;fillColor=none;" vertex="1" parent="1">
          <mxGeometry x="595" y="448" width="30" height="30" as="geometry" />
        </mxCell>
        <mxCell id="a28yKtqxHukzNuhF35Zg-50" value="1" style="text;html=1;align=center;verticalAlign=middle;resizable=0;points=[];autosize=1;strokeColor=none;fillColor=none;" vertex="1" parent="1">
          <mxGeometry x="550" y="450" width="30" height="30" as="geometry" />
        </mxCell>
        <mxCell id="a28yKtqxHukzNuhF35Zg-51" value="9" style="text;html=1;align=center;verticalAlign=middle;resizable=0;points=[];autosize=1;strokeColor=none;fillColor=none;" vertex="1" parent="1">
          <mxGeometry x="305" y="450" width="30" height="30" as="geometry" />
        </mxCell>
        <mxCell id="a28yKtqxHukzNuhF35Zg-52" value="11" style="text;html=1;align=center;verticalAlign=middle;resizable=0;points=[];autosize=1;strokeColor=none;fillColor=none;" vertex="1" parent="1">
          <mxGeometry x="215" y="450" width="40" height="30" as="geometry" />
        </mxCell>
        <mxCell id="a28yKtqxHukzNuhF35Zg-53" value="13" style="text;html=1;align=center;verticalAlign=middle;resizable=0;points=[];autosize=1;strokeColor=none;fillColor=none;" vertex="1" parent="1">
          <mxGeometry x="120" y="450" width="40" height="30" as="geometry" />
        </mxCell>
        <mxCell id="a28yKtqxHukzNuhF35Zg-54" value="NoC Router" style="rounded=0;whiteSpace=wrap;html=1;" vertex="1" parent="1">
          <mxGeometry x="595" y="160" width="120" height="230" as="geometry" />
        </mxCell>
        <mxCell id="a28yKtqxHukzNuhF35Zg-55" value="" style="group" vertex="1" connectable="0" parent="1">
          <mxGeometry x="516" y="170" width="80" height="32" as="geometry" />
        </mxCell>
        <mxCell id="a28yKtqxHukzNuhF35Zg-56" value="" style="endArrow=classic;html=1;rounded=0;" edge="1" parent="a28yKtqxHukzNuhF35Zg-55">
          <mxGeometry width="50" height="50" relative="1" as="geometry">
            <mxPoint y="32" as="sourcePoint" />
            <mxPoint x="80" y="32" as="targetPoint" />
          </mxGeometry>
        </mxCell>
        <mxCell id="a28yKtqxHukzNuhF35Zg-57" value="clk" style="text;html=1;align=center;verticalAlign=middle;resizable=0;points=[];autosize=1;strokeColor=none;fillColor=none;" vertex="1" parent="a28yKtqxHukzNuhF35Zg-55">
          <mxGeometry x="10" width="40" height="30" as="geometry" />
        </mxCell>
        <mxCell id="a28yKtqxHukzNuhF35Zg-58" value="" style="group" vertex="1" connectable="0" parent="1">
          <mxGeometry x="515" y="215" width="80" height="32" as="geometry" />
        </mxCell>
        <mxCell id="a28yKtqxHukzNuhF35Zg-59" value="" style="endArrow=classic;html=1;rounded=0;" edge="1" parent="a28yKtqxHukzNuhF35Zg-58">
          <mxGeometry width="50" height="50" relative="1" as="geometry">
            <mxPoint y="32" as="sourcePoint" />
            <mxPoint x="80" y="32" as="targetPoint" />
          </mxGeometry>
        </mxCell>
        <mxCell id="a28yKtqxHukzNuhF35Zg-60" value="rst" style="text;html=1;align=center;verticalAlign=middle;resizable=0;points=[];autosize=1;strokeColor=none;fillColor=none;" vertex="1" parent="a28yKtqxHukzNuhF35Zg-58">
          <mxGeometry x="10" width="40" height="30" as="geometry" />
        </mxCell>
        <mxCell id="a28yKtqxHukzNuhF35Zg-61" value="" style="group" vertex="1" connectable="0" parent="1">
          <mxGeometry x="515" y="258" width="80" height="32" as="geometry" />
        </mxCell>
        <mxCell id="a28yKtqxHukzNuhF35Zg-62" value="" style="endArrow=classic;html=1;rounded=0;" edge="1" parent="a28yKtqxHukzNuhF35Zg-61">
          <mxGeometry width="50" height="50" relative="1" as="geometry">
            <mxPoint y="32" as="sourcePoint" />
            <mxPoint x="80" y="32" as="targetPoint" />
          </mxGeometry>
        </mxCell>
        <mxCell id="a28yKtqxHukzNuhF35Zg-63" value="src_ready" style="text;html=1;align=center;verticalAlign=middle;resizable=0;points=[];autosize=1;strokeColor=none;fillColor=none;" vertex="1" parent="a28yKtqxHukzNuhF35Zg-61">
          <mxGeometry x="-10" width="80" height="30" as="geometry" />
        </mxCell>
        <mxCell id="a28yKtqxHukzNuhF35Zg-64" value="" style="group" vertex="1" connectable="0" parent="1">
          <mxGeometry x="516" y="300" width="80" height="32" as="geometry" />
        </mxCell>
        <mxCell id="a28yKtqxHukzNuhF35Zg-65" value="" style="endArrow=classic;html=1;rounded=0;" edge="1" parent="a28yKtqxHukzNuhF35Zg-64">
          <mxGeometry width="50" height="50" relative="1" as="geometry">
            <mxPoint y="32" as="sourcePoint" />
            <mxPoint x="80" y="32" as="targetPoint" />
          </mxGeometry>
        </mxCell>
        <mxCell id="a28yKtqxHukzNuhF35Zg-66" value="src_data" style="text;html=1;align=center;verticalAlign=middle;resizable=0;points=[];autosize=1;strokeColor=none;fillColor=none;" vertex="1" parent="a28yKtqxHukzNuhF35Zg-64">
          <mxGeometry x="-5" width="70" height="30" as="geometry" />
        </mxCell>
        <mxCell id="a28yKtqxHukzNuhF35Zg-67" value="" style="group" vertex="1" connectable="0" parent="1">
          <mxGeometry x="516" y="340" width="80" height="32" as="geometry" />
        </mxCell>
        <mxCell id="a28yKtqxHukzNuhF35Zg-68" value="" style="endArrow=classic;html=1;rounded=0;" edge="1" parent="a28yKtqxHukzNuhF35Zg-67">
          <mxGeometry width="50" height="50" relative="1" as="geometry">
            <mxPoint y="32" as="sourcePoint" />
            <mxPoint x="80" y="32" as="targetPoint" />
          </mxGeometry>
        </mxCell>
        <mxCell id="a28yKtqxHukzNuhF35Zg-69" value="dst_ready" style="text;html=1;align=center;verticalAlign=middle;resizable=0;points=[];autosize=1;strokeColor=none;fillColor=none;" vertex="1" parent="a28yKtqxHukzNuhF35Zg-67">
          <mxGeometry x="-10" width="80" height="30" as="geometry" />
        </mxCell>
        <mxCell id="a28yKtqxHukzNuhF35Zg-73" value="" style="group" vertex="1" connectable="0" parent="1">
          <mxGeometry x="715" y="167" width="80" height="32" as="geometry" />
        </mxCell>
        <mxCell id="a28yKtqxHukzNuhF35Zg-74" value="" style="endArrow=classic;html=1;rounded=0;" edge="1" parent="a28yKtqxHukzNuhF35Zg-73">
          <mxGeometry width="50" height="50" relative="1" as="geometry">
            <mxPoint y="32" as="sourcePoint" />
            <mxPoint x="80" y="32" as="targetPoint" />
          </mxGeometry>
        </mxCell>
        <mxCell id="a28yKtqxHukzNuhF35Zg-75" value="dst_valid" style="text;html=1;align=center;verticalAlign=middle;resizable=0;points=[];autosize=1;strokeColor=none;fillColor=none;" vertex="1" parent="a28yKtqxHukzNuhF35Zg-73">
          <mxGeometry x="-5" width="70" height="30" as="geometry" />
        </mxCell>
        <mxCell id="a28yKtqxHukzNuhF35Zg-76" value="" style="group" vertex="1" connectable="0" parent="1">
          <mxGeometry x="715" y="210" width="80" height="32" as="geometry" />
        </mxCell>
        <mxCell id="a28yKtqxHukzNuhF35Zg-77" value="" style="endArrow=classic;html=1;rounded=0;" edge="1" parent="a28yKtqxHukzNuhF35Zg-76">
          <mxGeometry width="50" height="50" relative="1" as="geometry">
            <mxPoint y="32" as="sourcePoint" />
            <mxPoint x="80" y="32" as="targetPoint" />
          </mxGeometry>
        </mxCell>
        <mxCell id="a28yKtqxHukzNuhF35Zg-78" value="buffer00" style="text;html=1;align=center;verticalAlign=middle;resizable=0;points=[];autosize=1;strokeColor=none;fillColor=none;" vertex="1" parent="a28yKtqxHukzNuhF35Zg-76">
          <mxGeometry x="-5" width="70" height="30" as="geometry" />
        </mxCell>
        <mxCell id="a28yKtqxHukzNuhF35Zg-79" value="" style="group" vertex="1" connectable="0" parent="1">
          <mxGeometry x="716" y="254" width="80" height="32" as="geometry" />
        </mxCell>
        <mxCell id="a28yKtqxHukzNuhF35Zg-80" value="" style="endArrow=classic;html=1;rounded=0;" edge="1" parent="a28yKtqxHukzNuhF35Zg-79">
          <mxGeometry width="50" height="50" relative="1" as="geometry">
            <mxPoint y="32" as="sourcePoint" />
            <mxPoint x="80" y="32" as="targetPoint" />
          </mxGeometry>
        </mxCell>
        <mxCell id="a28yKtqxHukzNuhF35Zg-81" value="buffer01" style="text;html=1;align=center;verticalAlign=middle;resizable=0;points=[];autosize=1;strokeColor=none;fillColor=none;" vertex="1" parent="a28yKtqxHukzNuhF35Zg-79">
          <mxGeometry x="-5" width="70" height="30" as="geometry" />
        </mxCell>
        <mxCell id="a28yKtqxHukzNuhF35Zg-82" value="" style="group" vertex="1" connectable="0" parent="1">
          <mxGeometry x="716" y="290" width="80" height="32" as="geometry" />
        </mxCell>
        <mxCell id="a28yKtqxHukzNuhF35Zg-83" value="" style="endArrow=classic;html=1;rounded=0;" edge="1" parent="a28yKtqxHukzNuhF35Zg-82">
          <mxGeometry width="50" height="50" relative="1" as="geometry">
            <mxPoint y="32" as="sourcePoint" />
            <mxPoint x="80" y="32" as="targetPoint" />
          </mxGeometry>
        </mxCell>
        <mxCell id="a28yKtqxHukzNuhF35Zg-84" value="buffer10" style="text;html=1;align=center;verticalAlign=middle;resizable=0;points=[];autosize=1;strokeColor=none;fillColor=none;" vertex="1" parent="a28yKtqxHukzNuhF35Zg-82">
          <mxGeometry x="-5" width="70" height="30" as="geometry" />
        </mxCell>
        <mxCell id="a28yKtqxHukzNuhF35Zg-85" value="" style="group" vertex="1" connectable="0" parent="1">
          <mxGeometry x="716" y="338" width="80" height="32" as="geometry" />
        </mxCell>
        <mxCell id="a28yKtqxHukzNuhF35Zg-86" value="" style="endArrow=classic;html=1;rounded=0;" edge="1" parent="a28yKtqxHukzNuhF35Zg-85">
          <mxGeometry width="50" height="50" relative="1" as="geometry">
            <mxPoint y="32" as="sourcePoint" />
            <mxPoint x="80" y="32" as="targetPoint" />
          </mxGeometry>
        </mxCell>
        <mxCell id="a28yKtqxHukzNuhF35Zg-87" value="buffer11" style="text;html=1;align=center;verticalAlign=middle;resizable=0;points=[];autosize=1;strokeColor=none;fillColor=none;" vertex="1" parent="a28yKtqxHukzNuhF35Zg-85">
          <mxGeometry x="-5" width="70" height="30" as="geometry" />
        </mxCell>
      </root>
    </mxGraphModel>
  </diagram>
</mxfile>
